# xmcd CD database file
#
# Track frame offsets:
#	150
#	14182
#	28207
#	45332
#	60120
#	81111
#	98906
#	114343
#	127769
#	143830
#	154939
#	174488
#
# Disc length: 2550 seconds
#
# Revision: 0
# Processed by: cddbd v1.5.2PL0 Copyright (c) Steve Scherf et al.
# Submitted via: jetAudio 7
#
DISCID=9109f40c
DTITLE=張惟怡 - 風琴_風情
DYEAR=1900
DGENRE=장르 없음
TTITLE0=重歸蘇蓮托
TTITLE1=愛慕
TTITLE2=夏日裏最後一朵玫瑰
TTITLE3=幸福時光
TTITLE4=山楂樹
TTITLE5=鴿子
TTITLE6=拿坡裏的夜曲
TTITLE7=雪球花
TTITLE8=櫻桃時節
TTITLE9=瑪依拉
TTITLE10=玫瑰人生
TTITLE11=在銀色的月光下
EXTD=
EXTT0=
EXTT1=
EXTT2=
EXTT3=
EXTT4=
EXTT5=
EXTT6=
EXTT7=
EXTT8=
EXTT9=
EXTT10=
EXTT11=
PLAYORDER=
